<svg width="256" height="30" viewBox="0 0 256 30" fill="none" xmlns="http://www.w3.org/2000/svg">
<g clip-path="url(#clip0_2_6)">
<path d="M59.7552 11.0758H38.1635L37.3923 11.6627V29.9267H43.33V23.0317L43.8697 22.5184H59.755C63.7647 22.5184 65.6156 21.4916 65.6156 18.8511V14.6701C65.6158 12.1027 63.7649 11.0758 59.7552 11.0758ZM59.7552 17.8239C59.7552 19.0707 58.9069 19.2908 56.9791 19.2908H43.947L43.33 18.7775V14.89L43.8697 14.3765H56.9789C58.8297 14.3765 59.7549 14.5966 59.7549 15.8434L59.7552 17.8239ZM76.5658 14.5232L81.7323 21.7114L81.4238 22.3716H70.0111L67.0809 25.819H84.0456L85.2794 26.4791L87.9013 29.9266H94.7644L79.7274 10.8557M144.656 26.2591V21.1247L145.273 20.6112H156.763V17.3838H138.564V29.9266H165.4V26.6992H145.35M138.564 11.0758H165.631V14.5966H138.564V11.0758ZM108.413 14.4498H130.236C129.928 11.8093 128.154 11.0758 123.836 11.0758H108.182C103.247 11.0758 101.705 11.956 101.705 15.5501V25.5255C101.705 29.0464 103.247 30 108.182 30H123.836C128.231 30 129.928 29.1931 130.082 26.4791H108.413L107.796 25.8923V14.89M22.7409 18.4108H6.93285L6.47014 17.8974V14.67L6.93285 14.3033H28.2931L28.6015 13.6431C27.9075 11.8826 25.9797 11.0026 22.5096 11.0026H7.6268C2.69163 11.0026 1.14936 11.8827 1.14936 15.4767V17.6039C1.14936 21.1248 2.69163 22.0784 7.6268 22.0784H23.435L23.8976 22.5183V25.8924L23.5121 26.4059H0.686652C0.686652 26.4059 0.146967 26.6992 0.146967 26.7726C0.532485 29.2665 2.30612 29.9266 6.54723 29.9266H22.741C27.6762 29.9266 29.2957 29.0464 29.2957 25.4523V22.885C29.2956 19.3643 27.6762 18.4108 22.7409 18.4108ZM182.673 11.0025H173.728L173.265 11.8826L183.136 18.7776C184.986 17.7506 187.068 16.7238 189.227 15.6968M190.693 23.912L199.406 29.9266H208.352L208.737 29.1197L195.782 20.0977C194.086 21.3446 192.312 22.5916 190.693 23.912Z" fill="#ECECEC"/>
<path d="M181.362 29.9266H173.265L172.571 28.8996C178.046 23.8386 202.568 2.27384 255.853 0C255.853 0 211.205 1.4669 181.362 29.9266Z" fill="#ECECEC" fill-opacity="0.9"/>
</g>
<defs>
<clipPath id="clip0_2_6">
<rect width="256" height="30" fill="white"/>
</clipPath>
</defs>
</svg>
