<svg width="142" height="142" viewBox="0 0 142 142" fill="none" xmlns="http://www.w3.org/2000/svg">
<path d="M132 0H10C4.47715 0 0 4.47715 0 10V132C0 137.523 4.47715 142 10 142H132C137.523 142 142 137.523 142 132V10C142 4.47715 137.523 0 132 0Z" fill="white" fill-opacity="0.9"/>
<path d="M11.066 4.77118H4.77148V11.0657H11.066V4.77118Z" fill="black"/>
<path d="M17.3599 4.77118H11.0654V11.0657H17.3599V4.77118Z" fill="black"/>
<path d="M23.6546 4.77118H17.3601V11.0657H23.6546V4.77118Z" fill="black"/>
<path d="M29.9488 4.77118H23.6543V11.0657H29.9488V4.77118Z" fill="black"/>
<path d="M36.2437 4.77118H29.9492V11.0657H36.2437V4.77118Z" fill="black"/>
<path d="M42.5381 4.77118H36.2437V11.0657H42.5381V4.77118Z" fill="black"/>
<path d="M48.8326 4.77118H42.5381V11.0657H48.8326V4.77118Z" fill="black"/>
<path d="M67.7159 4.77118H61.4214V11.0657H67.7159V4.77118Z" fill="black"/>
<path d="M80.305 4.77118H74.0105V11.0657H80.305V4.77118Z" fill="black"/>
<path d="M86.5994 4.77118H80.3049V11.0657H86.5994V4.77118Z" fill="black"/>
<path d="M99.1883 4.77118H92.8938V11.0657H99.1883V4.77118Z" fill="black"/>
<path d="M105.483 4.77118H99.1885V11.0657H105.483V4.77118Z" fill="black"/>
<path d="M111.777 4.77118H105.483V11.0657H111.777V4.77118Z" fill="black"/>
<path d="M118.072 4.77118H111.778V11.0657H118.072V4.77118Z" fill="black"/>
<path d="M124.366 4.77118H118.072V11.0657H124.366V4.77118Z" fill="black"/>
<path d="M130.661 4.77118H124.366V11.0657H130.661V4.77118Z" fill="black"/>
<path d="M136.955 4.77118H130.66V11.0657H136.955V4.77118Z" fill="black"/>
<path d="M11.066 11.0658H4.77148V17.3603H11.066V11.0658Z" fill="black"/>
<path d="M48.8326 11.0658H42.5381V17.3603H48.8326V11.0658Z" fill="black"/>
<path d="M61.4214 11.0658H55.127V17.3603H61.4214V11.0658Z" fill="black"/>
<path d="M74.0103 11.0658H67.7158V17.3603H74.0103V11.0658Z" fill="black"/>
<path d="M86.5994 11.0658H80.3049V17.3603H86.5994V11.0658Z" fill="black"/>
<path d="M99.1883 11.0658H92.8938V17.3603H99.1883V11.0658Z" fill="black"/>
<path d="M136.955 11.0658H130.66V17.3603H136.955V11.0658Z" fill="black"/>
<path d="M11.066 17.3602H4.77148V23.6546H11.066V17.3602Z" fill="black"/>
<path d="M23.6546 17.3602H17.3601V23.6546H23.6546V17.3602Z" fill="black"/>
<path d="M29.9488 17.3602H23.6543V23.6546H29.9488V17.3602Z" fill="black"/>
<path d="M36.2437 17.3602H29.9492V23.6546H36.2437V17.3602Z" fill="black"/>
<path d="M48.8326 17.3602H42.5381V23.6546H48.8326V17.3602Z" fill="black"/>
<path d="M61.4214 17.3602H55.127V23.6546H61.4214V17.3602Z" fill="black"/>
<path d="M67.7159 17.3602H61.4214V23.6546H67.7159V17.3602Z" fill="black"/>
<path d="M74.0103 17.3602H67.7158V23.6546H74.0103V17.3602Z" fill="black"/>
<path d="M80.305 17.3602H74.0105V23.6546H80.305V17.3602Z" fill="black"/>
<path d="M99.1883 17.3602H92.8938V23.6546H99.1883V17.3602Z" fill="black"/>
<path d="M111.777 17.3602H105.483V23.6546H111.777V17.3602Z" fill="black"/>
<path d="M118.072 17.3602H111.778V23.6546H118.072V17.3602Z" fill="black"/>
<path d="M124.366 17.3602H118.072V23.6546H124.366V17.3602Z" fill="black"/>
<path d="M136.955 17.3602H130.66V23.6546H136.955V17.3602Z" fill="black"/>
<path d="M11.066 23.6547H4.77148V29.9491H11.066V23.6547Z" fill="black"/>
<path d="M23.6546 23.6547H17.3601V29.9491H23.6546V23.6547Z" fill="black"/>
<path d="M29.9488 23.6547H23.6543V29.9491H29.9488V23.6547Z" fill="black"/>
<path d="M36.2437 23.6547H29.9492V29.9491H36.2437V23.6547Z" fill="black"/>
<path d="M48.8326 23.6547H42.5381V29.9491H48.8326V23.6547Z" fill="black"/>
<path d="M61.4214 23.6547H55.127V29.9491H61.4214V23.6547Z" fill="black"/>
<path d="M86.5994 23.6547H80.3049V29.9491H86.5994V23.6547Z" fill="black"/>
<path d="M99.1883 23.6547H92.8938V29.9491H99.1883V23.6547Z" fill="black"/>
<path d="M111.777 23.6547H105.483V29.9491H111.777V23.6547Z" fill="black"/>
<path d="M118.072 23.6547H111.778V29.9491H118.072V23.6547Z" fill="black"/>
<path d="M124.366 23.6547H118.072V29.9491H124.366V23.6547Z" fill="black"/>
<path d="M136.955 23.6547H130.66V29.9491H136.955V23.6547Z" fill="black"/>
<path d="M11.066 29.949H4.77148V36.2435H11.066V29.949Z" fill="black"/>
<path d="M23.6546 29.949H17.3601V36.2435H23.6546V29.949Z" fill="black"/>
<path d="M29.9488 29.949H23.6543V36.2435H29.9488V29.949Z" fill="black"/>
<path d="M36.2437 29.949H29.9492V36.2435H36.2437V29.949Z" fill="black"/>
<path d="M48.8326 29.949H42.5381V36.2435H48.8326V29.949Z" fill="black"/>
<path d="M61.4214 29.949H55.127V36.2435H61.4214V29.949Z" fill="black"/>
<path d="M74.0103 29.949H67.7158V36.2435H74.0103V29.949Z" fill="black"/>
<path d="M80.305 29.949H74.0105V36.2435H80.305V29.949Z" fill="black"/>
<path d="M86.5994 29.949H80.3049V36.2435H86.5994V29.949Z" fill="black"/>
<path d="M99.1883 29.949H92.8938V36.2435H99.1883V29.949Z" fill="black"/>
<path d="M111.777 29.949H105.483V36.2435H111.777V29.949Z" fill="black"/>
<path d="M118.072 29.949H111.778V36.2435H118.072V29.949Z" fill="black"/>
<path d="M124.366 29.949H118.072V36.2435H124.366V29.949Z" fill="black"/>
<path d="M136.955 29.949H130.66V36.2435H136.955V29.949Z" fill="black"/>
<path d="M11.066 36.2436H4.77148V42.5381H11.066V36.2436Z" fill="black"/>
<path d="M48.8326 36.2436H42.5381V42.5381H48.8326V36.2436Z" fill="black"/>
<path d="M61.4214 36.2436H55.127V42.5381H61.4214V36.2436Z" fill="black"/>
<path d="M67.7159 36.2436H61.4214V42.5381H67.7159V36.2436Z" fill="black"/>
<path d="M80.305 36.2436H74.0105V42.5381H80.305V36.2436Z" fill="black"/>
<path d="M99.1883 36.2436H92.8938V42.5381H99.1883V36.2436Z" fill="black"/>
<path d="M136.955 36.2436H130.66V42.5381H136.955V36.2436Z" fill="black"/>
<path d="M11.066 42.538H4.77148V48.8324H11.066V42.538Z" fill="black"/>
<path d="M17.3599 42.538H11.0654V48.8324H17.3599V42.538Z" fill="black"/>
<path d="M23.6546 42.538H17.3601V48.8324H23.6546V42.538Z" fill="black"/>
<path d="M29.9488 42.538H23.6543V48.8324H29.9488V42.538Z" fill="black"/>
<path d="M36.2437 42.538H29.9492V48.8324H36.2437V42.538Z" fill="black"/>
<path d="M42.5381 42.538H36.2437V48.8324H42.5381V42.538Z" fill="black"/>
<path d="M48.8326 42.538H42.5381V48.8324H48.8326V42.538Z" fill="black"/>
<path d="M61.4214 42.538H55.127V48.8324H61.4214V42.538Z" fill="black"/>
<path d="M74.0103 42.538H67.7158V48.8324H74.0103V42.538Z" fill="black"/>
<path d="M86.5994 42.538H80.3049V48.8324H86.5994V42.538Z" fill="black"/>
<path d="M99.1883 42.538H92.8938V48.8324H99.1883V42.538Z" fill="black"/>
<path d="M105.483 42.538H99.1885V48.8324H105.483V42.538Z" fill="black"/>
<path d="M111.777 42.538H105.483V48.8324H111.777V42.538Z" fill="black"/>
<path d="M118.072 42.538H111.778V48.8324H118.072V42.538Z" fill="black"/>
<path d="M124.366 42.538H118.072V48.8324H124.366V42.538Z" fill="black"/>
<path d="M130.661 42.538H124.366V48.8324H130.661V42.538Z" fill="black"/>
<path d="M136.955 42.538H130.66V48.8324H136.955V42.538Z" fill="black"/>
<path d="M74.0103 48.8325H67.7158V55.1269H74.0103V48.8325Z" fill="black"/>
<path d="M86.5994 48.8325H80.3049V55.1269H86.5994V48.8325Z" fill="black"/>
<path d="M23.6546 55.1271H17.3601V61.4215H23.6546V55.1271Z" fill="black"/>
<path d="M42.5381 55.1271H36.2437V61.4215H42.5381V55.1271Z" fill="black"/>
<path d="M48.8326 55.1271H42.5381V61.4215H48.8326V55.1271Z" fill="black"/>
<path d="M55.127 55.1271H48.8325V61.4215H55.127V55.1271Z" fill="black"/>
<path d="M61.4214 55.1271H55.127V61.4215H61.4214V55.1271Z" fill="black"/>
<path d="M67.7159 55.1271H61.4214V61.4215H67.7159V55.1271Z" fill="black"/>
<path d="M80.305 55.1271H74.0105V61.4215H80.305V55.1271Z" fill="black"/>
<path d="M92.8936 55.1271H86.5991V61.4215H92.8936V55.1271Z" fill="black"/>
<path d="M105.483 55.1271H99.1885V61.4215H105.483V55.1271Z" fill="black"/>
<path d="M111.777 55.1271H105.483V61.4215H111.777V55.1271Z" fill="black"/>
<path d="M118.072 55.1271H111.778V61.4215H118.072V55.1271Z" fill="black"/>
<path d="M124.366 55.1271H118.072V61.4215H124.366V55.1271Z" fill="black"/>
<path d="M130.661 55.1271H124.366V61.4215H130.661V55.1271Z" fill="black"/>
<path d="M36.2437 61.4215H29.9492V67.716H36.2437V61.4215Z" fill="black"/>
<path d="M42.5381 61.4215H36.2437V67.716H42.5381V61.4215Z" fill="black"/>
<path d="M55.127 61.4215H48.8325V67.716H55.127V61.4215Z" fill="black"/>
<path d="M61.4214 61.4215H55.127V67.716H61.4214V61.4215Z" fill="black"/>
<path d="M74.0103 61.4215H67.7158V67.716H74.0103V61.4215Z" fill="black"/>
<path d="M80.305 61.4215H74.0105V67.716H80.305V61.4215Z" fill="black"/>
<path d="M11.066 67.716H4.77148V74.0105H11.066V67.716Z" fill="black"/>
<path d="M29.9488 67.716H23.6543V74.0105H29.9488V67.716Z" fill="black"/>
<path d="M48.8326 67.716H42.5381V74.0105H48.8326V67.716Z" fill="black"/>
<path d="M55.127 67.716H48.8325V74.0105H55.127V67.716Z" fill="black"/>
<path d="M61.4214 67.716H55.127V74.0105H61.4214V67.716Z" fill="black"/>
<path d="M92.8936 67.716H86.5991V74.0105H92.8936V67.716Z" fill="black"/>
<path d="M99.1883 67.716H92.8938V74.0105H99.1883V67.716Z" fill="black"/>
<path d="M118.072 67.716H111.778V74.0105H118.072V67.716Z" fill="black"/>
<path d="M124.366 67.716H118.072V74.0105H124.366V67.716Z" fill="black"/>
<path d="M130.661 67.716H124.366V74.0105H130.661V67.716Z" fill="black"/>
<path d="M11.066 74.0104H4.77148V80.3048H11.066V74.0104Z" fill="black"/>
<path d="M42.5381 74.0104H36.2437V80.3048H42.5381V74.0104Z" fill="black"/>
<path d="M61.4214 74.0104H55.127V80.3048H61.4214V74.0104Z" fill="black"/>
<path d="M67.7159 74.0104H61.4214V80.3048H67.7159V74.0104Z" fill="black"/>
<path d="M74.0103 74.0104H67.7158V80.3048H74.0103V74.0104Z" fill="black"/>
<path d="M92.8936 74.0104H86.5991V80.3048H92.8936V74.0104Z" fill="black"/>
<path d="M99.1883 74.0104H92.8938V80.3048H99.1883V74.0104Z" fill="black"/>
<path d="M111.777 74.0104H105.483V80.3048H111.777V74.0104Z" fill="black"/>
<path d="M130.661 74.0104H124.366V80.3048H130.661V74.0104Z" fill="black"/>
<path d="M136.955 74.0104H130.66V80.3048H136.955V74.0104Z" fill="black"/>
<path d="M11.066 80.3049H4.77148V86.5993H11.066V80.3049Z" fill="black"/>
<path d="M23.6546 80.3049H17.3601V86.5993H23.6546V80.3049Z" fill="black"/>
<path d="M36.2437 80.3049H29.9492V86.5993H36.2437V80.3049Z" fill="black"/>
<path d="M48.8326 80.3049H42.5381V86.5993H48.8326V80.3049Z" fill="black"/>
<path d="M61.4214 80.3049H55.127V86.5993H61.4214V80.3049Z" fill="black"/>
<path d="M74.0103 80.3049H67.7158V86.5993H74.0103V80.3049Z" fill="black"/>
<path d="M80.305 80.3049H74.0105V86.5993H80.305V80.3049Z" fill="black"/>
<path d="M99.1883 80.3049H92.8938V86.5993H99.1883V80.3049Z" fill="black"/>
<path d="M118.072 80.3049H111.778V86.5993H118.072V80.3049Z" fill="black"/>
<path d="M124.366 80.3049H118.072V86.5993H124.366V80.3049Z" fill="black"/>
<path d="M130.661 80.3049H124.366V86.5993H130.661V80.3049Z" fill="black"/>
<path d="M61.4214 86.5994H55.127V92.8938H61.4214V86.5994Z" fill="black"/>
<path d="M80.305 86.5994H74.0105V92.8938H80.305V86.5994Z" fill="black"/>
<path d="M92.8936 86.5994H86.5991V92.8938H92.8936V86.5994Z" fill="black"/>
<path d="M105.483 86.5994H99.1885V92.8938H105.483V86.5994Z" fill="black"/>
<path d="M118.072 86.5994H111.778V92.8938H118.072V86.5994Z" fill="black"/>
<path d="M124.366 86.5994H118.072V92.8938H124.366V86.5994Z" fill="black"/>
<path d="M11.066 92.8938H4.77148V99.1883H11.066V92.8938Z" fill="black"/>
<path d="M17.3599 92.8938H11.0654V99.1883H17.3599V92.8938Z" fill="black"/>
<path d="M23.6546 92.8938H17.3601V99.1883H23.6546V92.8938Z" fill="black"/>
<path d="M29.9488 92.8938H23.6543V99.1883H29.9488V92.8938Z" fill="black"/>
<path d="M36.2437 92.8938H29.9492V99.1883H36.2437V92.8938Z" fill="black"/>
<path d="M42.5381 92.8938H36.2437V99.1883H42.5381V92.8938Z" fill="black"/>
<path d="M48.8326 92.8938H42.5381V99.1883H48.8326V92.8938Z" fill="black"/>
<path d="M61.4214 92.8938H55.127V99.1883H61.4214V92.8938Z" fill="black"/>
<path d="M74.0103 92.8938H67.7158V99.1883H74.0103V92.8938Z" fill="black"/>
<path d="M80.305 92.8938H74.0105V99.1883H80.305V92.8938Z" fill="black"/>
<path d="M105.483 92.8938H99.1885V99.1883H105.483V92.8938Z" fill="black"/>
<path d="M111.777 92.8938H105.483V99.1883H111.777V92.8938Z" fill="black"/>
<path d="M118.072 92.8938H111.778V99.1883H118.072V92.8938Z" fill="black"/>
<path d="M130.661 92.8938H124.366V99.1883H130.661V92.8938Z" fill="black"/>
<path d="M11.066 99.1883H4.77148V105.483H11.066V99.1883Z" fill="black"/>
<path d="M48.8326 99.1883H42.5381V105.483H48.8326V99.1883Z" fill="black"/>
<path d="M61.4214 99.1883H55.127V105.483H61.4214V99.1883Z" fill="black"/>
<path d="M86.5994 99.1883H80.3049V105.483H86.5994V99.1883Z" fill="black"/>
<path d="M105.483 99.1883H99.1885V105.483H105.483V99.1883Z" fill="black"/>
<path d="M118.072 99.1883H111.778V105.483H118.072V99.1883Z" fill="black"/>
<path d="M124.366 99.1883H118.072V105.483H124.366V99.1883Z" fill="black"/>
<path d="M11.066 105.483H4.77148V111.777H11.066V105.483Z" fill="black"/>
<path d="M23.6546 105.483H17.3601V111.777H23.6546V105.483Z" fill="black"/>
<path d="M29.9488 105.483H23.6543V111.777H29.9488V105.483Z" fill="black"/>
<path d="M36.2437 105.483H29.9492V111.777H36.2437V105.483Z" fill="black"/>
<path d="M48.8326 105.483H42.5381V111.777H48.8326V105.483Z" fill="black"/>
<path d="M67.7159 105.483H61.4214V111.777H67.7159V105.483Z" fill="black"/>
<path d="M80.305 105.483H74.0105V111.777H80.305V105.483Z" fill="black"/>
<path d="M86.5994 105.483H80.3049V111.777H86.5994V105.483Z" fill="black"/>
<path d="M99.1883 105.483H92.8938V111.777H99.1883V105.483Z" fill="black"/>
<path d="M105.483 105.483H99.1885V111.777H105.483V105.483Z" fill="black"/>
<path d="M111.777 105.483H105.483V111.777H111.777V105.483Z" fill="black"/>
<path d="M118.072 105.483H111.778V111.777H118.072V105.483Z" fill="black"/>
<path d="M124.366 105.483H118.072V111.777H124.366V105.483Z" fill="black"/>
<path d="M130.661 105.483H124.366V111.777H130.661V105.483Z" fill="black"/>
<path d="M136.955 105.483H130.66V111.777H136.955V105.483Z" fill="black"/>
<path d="M11.066 111.777H4.77148V118.072H11.066V111.777Z" fill="black"/>
<path d="M23.6546 111.777H17.3601V118.072H23.6546V111.777Z" fill="black"/>
<path d="M29.9488 111.777H23.6543V118.072H29.9488V111.777Z" fill="black"/>
<path d="M36.2437 111.777H29.9492V118.072H36.2437V111.777Z" fill="black"/>
<path d="M48.8326 111.777H42.5381V118.072H48.8326V111.777Z" fill="black"/>
<path d="M67.7159 111.777H61.4214V118.072H67.7159V111.777Z" fill="black"/>
<path d="M11.066 118.072H4.77148V124.366H11.066V118.072Z" fill="black"/>
<path d="M23.6546 118.072H17.3601V124.366H23.6546V118.072Z" fill="black"/>
<path d="M29.9488 118.072H23.6543V124.366H29.9488V118.072Z" fill="black"/>
<path d="M36.2437 118.072H29.9492V124.366H36.2437V118.072Z" fill="black"/>
<path d="M48.8326 118.072H42.5381V124.366H48.8326V118.072Z" fill="black"/>
<path d="M61.4214 118.072H55.127V124.366H61.4214V118.072Z" fill="black"/>
<path d="M74.0103 118.072H67.7158V124.366H74.0103V118.072Z" fill="black"/>
<path d="M80.305 118.072H74.0105V124.366H80.305V118.072Z" fill="black"/>
<path d="M86.5994 118.072H80.3049V124.366H86.5994V118.072Z" fill="black"/>
<path d="M92.8936 118.072H86.5991V124.366H92.8936V118.072Z" fill="black"/>
<path d="M99.1883 118.072H92.8938V124.366H99.1883V118.072Z" fill="black"/>
<path d="M124.366 118.072H118.072V124.366H124.366V118.072Z" fill="black"/>
<path d="M130.661 118.072H124.366V124.366H130.661V118.072Z" fill="black"/>
<path d="M136.955 118.072H130.66V124.366H136.955V118.072Z" fill="black"/>
<path d="M11.066 124.366H4.77148V130.661H11.066V124.366Z" fill="black"/>
<path d="M48.8326 124.366H42.5381V130.661H48.8326V124.366Z" fill="black"/>
<path d="M67.7159 124.366H61.4214V130.661H67.7159V124.366Z" fill="black"/>
<path d="M86.5994 124.366H80.3049V130.661H86.5994V124.366Z" fill="black"/>
<path d="M111.777 124.366H105.483V130.661H111.777V124.366Z" fill="black"/>
<path d="M130.661 124.366H124.366V130.661H130.661V124.366Z" fill="black"/>
<path d="M11.066 130.661H4.77148V136.955H11.066V130.661Z" fill="black"/>
<path d="M17.3599 130.661H11.0654V136.955H17.3599V130.661Z" fill="black"/>
<path d="M23.6546 130.661H17.3601V136.955H23.6546V130.661Z" fill="black"/>
<path d="M29.9488 130.661H23.6543V136.955H29.9488V130.661Z" fill="black"/>
<path d="M36.2437 130.661H29.9492V136.955H36.2437V130.661Z" fill="black"/>
<path d="M42.5381 130.661H36.2437V136.955H42.5381V130.661Z" fill="black"/>
<path d="M48.8326 130.661H42.5381V136.955H48.8326V130.661Z" fill="black"/>
<path d="M67.7159 130.661H61.4214V136.955H67.7159V130.661Z" fill="black"/>
<path d="M74.0103 130.661H67.7158V136.955H74.0103V130.661Z" fill="black"/>
<path d="M80.305 130.661H74.0105V136.955H80.305V130.661Z" fill="black"/>
<path d="M92.8936 130.661H86.5991V136.955H92.8936V130.661Z" fill="black"/>
<path d="M124.366 130.661H118.072V136.955H124.366V130.661Z" fill="black"/>
<path d="M130.661 130.661H124.366V136.955H130.661V130.661Z" fill="black"/>
<path d="M136.955 130.661H130.66V136.955H136.955V130.661Z" fill="black"/>
</svg>
